<svg version="1.1" id="Layer_2" xmlns="http://www.w3.org/2000/svg" xmlns:xlink="http://www.w3.org/1999/xlink" x="0px" y="0px"
	 width="150px" height="150px" viewBox="0 0 150 150" preserveAspectRatio="false" xml:space="preserve">
<g>
	<g>
		<path style="fill:#D61F26;" d="M148.1,75c0,40.367-32.73,73.1-73.1,73.1c-40.374,0-73.1-32.732-73.1-73.1
			C1.9,34.626,34.625,1.9,75,1.9C115.367,1.9,148.1,34.626,148.1,75z"/>
		<path d="M75,5.206c38.485,0,69.794,31.311,69.794,69.794c0,38.483-31.309,69.794-69.794,69.794
			c-38.484,0-69.794-31.311-69.794-69.794C5.206,36.516,36.516,5.206,75,5.206 M75,1.9C34.626,1.9,1.9,34.625,1.9,75
			c0,40.367,32.725,73.1,73.1,73.1c40.367,0,73.1-32.732,73.1-73.1C148.1,34.626,115.367,1.9,75,1.9L75,1.9z"/>
	</g>
	<g>
		<path style="fill:#FFFFFF;" d="M129.665,75c0,30.189-24.476,54.665-54.665,54.665c-30.193,0-54.666-24.476-54.666-54.665
			c0-30.191,24.473-54.666,54.666-54.666C105.189,20.334,129.665,44.809,129.665,75z"/>
		<path d="M75,22.114c29.16,0,52.886,23.723,52.886,52.886c0,29.162-23.726,52.886-52.886,52.886
			c-29.161,0-52.886-23.724-52.886-52.886C22.114,45.837,45.839,22.114,75,22.114 M75,20.334c-30.193,0-54.666,24.475-54.666,54.666
			c0,30.189,24.472,54.665,54.666,54.665c30.189,0,54.665-24.476,54.665-54.665C129.665,44.809,105.189,20.334,75,20.334L75,20.334z
			"/>
	</g>
	<path d="M74.995,7.86l19.333,33.476h38.875l-19.436,33.665l19.436,33.659h-38.87l-19.331,33.478L55.67,108.66H16.794L36.23,74.996
		l-19.436-33.66h38.871L74.995,7.86 M74.995,2.777L72.792,6.59L54.197,38.795H16.794H12.39l2.203,3.813l18.703,32.388
		l-18.704,32.392l-2.201,3.815h4.403h37.408l18.599,32.207l2.202,3.814l2.203-3.814l18.597-32.207h37.401h4.406l-2.203-3.815
		l-18.704-32.388l18.704-32.393l2.203-3.813h-4.406H95.795L77.197,6.59L74.995,2.777L74.995,2.777z"/>
	<g>
		<polygon style="fill:#FFFFFF;" points="113.767,75.001 133.203,41.336 94.328,41.336 74.995,7.86 55.665,41.336 16.794,41.336 
			36.23,74.996 16.794,108.66 55.67,108.66 75.002,142.14 94.333,108.66 133.203,108.66 		"/>
	</g>
	<g>
		<g>
			<polygon style="fill:#D61F26;" points="107.274,71.646 121.203,47.521 93.342,47.521 			"/>
			<polygon style="fill:#D71F27;" points="105.805,74.19 90.404,47.521 60.798,47.521 45.403,74.186 60.802,100.854 90.409,100.854 
							"/>
			<polygon style="fill:#D61F26;" points="57.862,47.521 30.005,47.521 43.935,71.643 			"/>
			<polygon style="fill:#D61F26;" points="62.27,103.396 75.604,126.492 88.938,103.396 			"/>
		</g>
		<g>
			<polygon style="fill:#D61F26;" points="90.404,47.521 60.798,47.521 45.403,74.186 60.802,100.854 90.409,100.854 105.805,74.19 
							"/>
			<polygon style="fill:#D61F26;" points="93.344,100.854 121.203,100.854 107.274,76.732 			"/>
			<polygon style="fill:#D61F26;" points="88.937,44.978 75.601,21.884 62.267,44.979 			"/>
			<polygon style="fill:#D61F26;" points="43.935,76.731 30.005,100.854 57.864,100.854 			"/>
		</g>
	</g>
	<path style="fill:#FFFFFF;" d="M61.271,63.387l14.938,25.874l14.938-25.874H61.271z M76.104,76.144
		c-2.111,0-3.815-1.708-3.815-3.814c0-2.107,1.703-3.814,3.815-3.814c2.106,0,3.814,1.707,3.814,3.814
		C79.916,74.436,78.208,76.144,76.104,76.144z"/>
</g>
</svg>
